<svg id="logo_version_100_" data-name="logo_version 100 %" xmlns="http://www.w3.org/2000/svg" viewBox="0 0 455.77 111.15"><defs><style>.cls-1{fill:#f7cfb3}.cls-2{fill:#ff9a55}.cls-3{opacity:.5}.cls-4{fill:#6bcbf2}.cls-5{fill:#00a8de}.cls-6{font-size:11px;fill:#231f20;font-family:ArialMT,Arial}</style></defs><title>adoptapet_no_tagline2017</title><path class="cls-1" d="M293.8 111.34a11 11 0 0 0 10.64 7.66 12.15 12.15 0 0 0 10.78-8 11 11 0 0 0-3.74-12.28c-2.68-2.06-6.12-2.35-9.4-1.93-6.5.89-10.15 8.74-8.28 14.55zM286.5 91.38a6.3 6.3 0 0 0 5.62 4.62c6.09.36 8.84-8.21 3.25-11-3.9-2-9.9 1.81-8.87 6.38zM302.86 85.63a4.72 4.72 0 0 0 .8 4.7c3.16 3.26 9.15 2.23 9.15-2.87.01-4.92-8.38-6.62-9.95-1.83zM317 97.25c3.84 1.15 6.86-3.93 4-6.73a4 4 0 1 0-4 6.73zM319.24 105a3.18 3.18 0 0 0 1.4 1.69 4.36 4.36 0 0 0 6.21-2.57c.86-3.51-2.83-5.56-5.78-4.18a4.09 4.09 0 0 0-1.83 5.06zM358.88 100.83c-1-3.29-5.64-5.35-9.31-5.2-4.66.23-7.94 3.59-7.87 9.09s3.74 9.17 8 9.39a12.44 12.44 0 0 0 9.7-4.74l4.2 5c-4.12 4.89-9.09 7-14.06 7-8.86.08-16.42-7.87-16.57-16.35-.15-9.39 6.87-16.8 15.81-17 2.83 0 5.8.15 8.4 1.76l2-2 5.35 3.66zM381.08 121.76c-7.92.39-14.22-4.7-15.06-12.81a14.51 14.51 0 0 1 14.22-16.34c7.92-.32 14.42 6.69 14.29 14.29-.19 8.1-5.28 14.48-13.45 14.86zm-.9-22.91c-4.05.13-7.78 4.7-7.4 9.52.32 4.57 3.73 7.14 7.85 7.14s7.27-4.12 7.27-8.3-3.67-8.42-7.72-8.36zM426.34 121.76l1.52-18.1c.55-6.29-6.87-6.17-7.31-.39 0 0-.38 3.64-1.24 14.89l2 1.17-.37 3.27-9.55-.65c1.63-14.23 2-20.78 2-20.78.41-4-6.17-5.41-6.64.69 0 0-.16 2.52-1.49 18.48l-9.79-.92.44-4.79 2.65-.89 1.21-20.28-2.9-1.12.34-3.59 9.68.78-.12 4.23c1.67-1.69 3.8-2.26 6.7-2.07 2.32.2 5 1.71 5.68 3.79a9 9 0 0 1 7.26-2.66c5.23.27 8.73 4.37 8.28 10.28 0 0-.53 6.1-1.2 13.7l2.07 1.18-.42 4.47z" transform="translate(0 -14.03)"/><path class="cls-2" d="M294.8 108.34a11 11 0 0 0 10.64 7.66 12.15 12.15 0 0 0 10.78-8 11 11 0 0 0-3.74-12.28c-2.68-2.06-6.12-2.35-9.4-1.93-6.5.89-10.15 8.74-8.28 14.55zM287.5 88.38a6.3 6.3 0 0 0 5.62 4.62c6.09.36 8.84-8.21 3.25-11-3.9-2-9.9 1.81-8.87 6.38zM303.86 82.63a4.72 4.72 0 0 0 .8 4.7c3.16 3.26 9.15 2.23 9.15-2.87.01-4.92-8.38-6.62-9.95-1.83zM318 94.25c3.84 1.15 6.86-3.93 4-6.73a4 4 0 1 0-4 6.73zM320.24 102a3.18 3.18 0 0 0 1.4 1.69 4.36 4.36 0 0 0 6.21-2.57c.86-3.51-2.83-5.56-5.78-4.18a4.09 4.09 0 0 0-1.83 5.06zM359.88 97.83c-1-3.29-5.64-5.35-9.31-5.2-4.66.23-7.94 3.59-7.87 9.09s3.74 9.17 8 9.39a12.44 12.44 0 0 0 9.7-4.74l4.2 5c-4.12 4.89-9.09 7-14.06 7-8.86.08-16.42-7.87-16.57-16.35-.15-9.39 6.87-16.8 15.81-17 2.83 0 5.8.15 8.4 1.76l2-2 5.35 3.66zM382.08 118.76c-7.92.39-14.22-4.7-15.06-12.81a14.51 14.51 0 0 1 14.22-16.34c7.92-.32 14.42 6.69 14.29 14.29-.19 8.1-5.28 14.48-13.45 14.86zm-.9-22.91c-4.05.13-7.78 4.7-7.4 9.52.32 4.57 3.73 7.14 7.85 7.14s7.27-4.12 7.27-8.3-3.67-8.42-7.72-8.36zM427.34 118.76l1.52-18.1c.55-6.29-6.87-6.17-7.31-.39 0 0-.38 3.64-1.24 14.89l2 1.17-.37 3.27-9.55-.65c1.63-14.23 2-20.78 2-20.78.41-4-6.17-5.41-6.64.69 0 0-.16 2.52-1.49 18.48l-9.79-.92.44-4.79 2.65-.89 1.21-20.28-2.9-1.12.34-3.59 9.68.78-.12 4.23c1.67-1.69 3.8-2.26 6.7-2.07 2.32.2 5 1.71 5.68 3.79a9 9 0 0 1 7.26-2.66c5.23.27 8.73 4.37 8.28 10.28 0 0-.53 6.1-1.2 13.7l2.07 1.18-.42 4.47z" transform="translate(0 -14.03)"/><g class="cls-3"><path class="cls-4" d="M182.9 67.75v7.7a16.94 16.94 0 0 1-4.16.31c-6.46-.27-13.36-5.06-13-15.47l.59-17.74-5.6-.23.26-7 6-.88.45-14.35 8.28.35-.44 14.19 13.09.4-.52 6.77-12.77-.38-.54 18.37c-.16 3.78.47 7.6 5 7.95zM260.12 57.29l1.11 11.19 5.82.58.58 6.76L248 77.5l-.61-5.26 4.61-1.39-3.7-40.26-4.15-.59-.63-6.45a111.66 111.66 0 0 1 20.12-2c12.61-.28 18.41 8.54 18.93 15.6.75 9.85-4.79 18.08-22.45 20.14zm-2.57-27.41L259.72 49c12.86-1 13.69-7 13.07-11.53-.47-3.79-2.04-9.26-15.24-7.59zM293.18 53.1c.08 3.63 4.09 6.28 7.72 6.43a10.23 10.23 0 0 0 7.19-2.53l4.31 5.52c-3.1 3.41-7 4.46-11.42 4.39-8.7-.23-16.8-6.43-16.12-18.46.61-11 9.23-15.66 16-15.66 5.37 0 15.66 3.48 14.68 19.67zm7.57-13.1a7.53 7.53 0 0 0-7.19 6.36l14-.53a6.61 6.61 0 0 0-6.81-5.83zM341.63 68.28v7.32a16.08 16.08 0 0 1-4 .29c-6.14-.26-12.69-4.81-12.35-14.69l.56-16.84-5.31-.22.25-6.64 5.69-.83.47-13.67 7.86.33-.42 13.48 12.43.38-.5 6.43-12.13-.36-.51 17.45c-.15 3.59.45 7.21 4.71 7.54zM26.39 73.7l-.9-6.62L29 65.79l-3.23-8.48-11.58 1.08-2.79 17.66L.9 77.18 0 70.64 4.26 69l6.26-38.59-3.28-1.08-.47-6L21.56 22l16.8 42.78 4.6.81.77 5.95zm-8.6-37.24l-2.21 14.78 7.86-.81zM229.25 70.86L218 70l.28-2.72a8.7 8.7 0 0 1-5.57 1.78 14.9 14.9 0 0 1-6.3-1.41 12.92 12.92 0 0 1-5-4 8.69 8.69 0 0 1-1.69-6.14 10.43 10.43 0 0 1 4.1-7.83 12.82 12.82 0 0 1 8.75-2.43 12.32 12.32 0 0 1 4.15.82 9.47 9.47 0 0 1 2.76 1.62 6.66 6.66 0 0 0-.78-4 5.73 5.73 0 0 0-2.92-2.58 8.39 8.39 0 0 0-4.52-.35 14.24 14.24 0 0 0-5.65 2.5l-2.89-5.72a15.66 15.66 0 0 1 3.54-2.1 16.6 16.6 0 0 1 4.74-1.31 17.26 17.26 0 0 1 5.27.18 14.11 14.11 0 0 1 5.31 2.21 11.65 11.65 0 0 1 4.08 4.29 14.62 14.62 0 0 1 1.51 5.44 38.16 38.16 0 0 1-.08 6.83q-.35 3.8-.77 8.54l3.37.27zm-10.66-9.7l.39-5.24a10 10 0 0 0-2.08-1.26 10.21 10.21 0 0 0-2.85-.83 6.17 6.17 0 0 0-4.43.88 4.41 4.41 0 0 0-1.72 3.41 4 4 0 0 0 .79 2.87 5.47 5.47 0 0 0 2.52 1.89 6.59 6.59 0 0 0 3.52.25 8.21 8.21 0 0 0 3.86-1.98zM157.69 49.14a20.35 20.35 0 0 1-.23 6.19 16 16 0 0 1-2.29 5.73 14.74 14.74 0 0 1-4.58 4.45 16.63 16.63 0 0 1-7.18 2.29 15.76 15.76 0 0 1-9.85-2l1.5 15.55 6.33-.73.94 7.76-19.05 1.43-.5-6.35 4.28-.62-3.94-40.44-3.78.27-.58-6.34L131 34.76l.42 4.61a13.28 13.28 0 0 1 4.08-2.47 16.14 16.14 0 0 1 5.11-1.19 16.72 16.72 0 0 1 11.27 3.35 15.77 15.77 0 0 1 3.94 4.36 13.89 13.89 0 0 1 1.87 5.72zm-9.09 2.16a8.41 8.41 0 0 0-2.32-5.83 7.19 7.19 0 0 0-6-2.05 11.8 11.8 0 0 0-4.41 1.36 7.52 7.52 0 0 0-3.26 3.09l.79 8.65a8.89 8.89 0 0 0 3.6 2.73 9.55 9.55 0 0 0 4.79.79 7.1 7.1 0 0 0 4.93-2.74 8.41 8.41 0 0 0 1.88-6zM117.07 53.61a20.93 20.93 0 0 1-2 6.52 16.71 16.71 0 0 1-3.82 5 16.16 16.16 0 0 1-5.34 3.14 15.92 15.92 0 0 1-6.66.8 18.66 18.66 0 0 1-6.41-1.61 15.63 15.63 0 0 1-8.29-8.87A17.7 17.7 0 0 1 83.44 52a18.28 18.28 0 0 1 1.7-7.47 16.7 16.7 0 0 1 10.16-8.86 18.32 18.32 0 0 1 7.08-.79 14.64 14.64 0 0 1 6.4 2 16.84 16.84 0 0 1 4.9 4.34 17.86 17.86 0 0 1 2.92 5.85 15.37 15.37 0 0 1 .47 6.54zm-7.8-.56a9.13 9.13 0 0 0-.32-3.67 11.59 11.59 0 0 0-1.61-3.4 9.86 9.86 0 0 0-2.59-2.57 7.48 7.48 0 0 0-3.32-1.24 7.38 7.38 0 0 0-3.55.6 10.41 10.41 0 0 0-3.16 2.14 11 11 0 0 0-2.31 3.31 10.86 10.86 0 0 0-1 4 8.5 8.5 0 0 0 2.19 6.53 9.55 9.55 0 0 0 6 2.94 7 7 0 0 0 3.45-.42 9 9 0 0 0 2.95-1.82 11 11 0 0 0 2.18-2.91 10 10 0 0 0 1.09-3.54zM82.23 16.37v7.13l-4.62.3-.53 40.49 3.79-.15v7.2l-12.13.3.08-5.08a8.19 8.19 0 0 1-3.64 2.08 17.63 17.63 0 0 1-4.55.8 15.84 15.84 0 0 1-5.91-1 16.12 16.12 0 0 1-5.16-3.07A15.29 15.29 0 0 1 44.4 54a18.29 18.29 0 0 1 1-6.44 17.1 17.1 0 0 1 3.22-5.65 16 16 0 0 1 5.27-4 15.61 15.61 0 0 1 7.16-1.44 13.6 13.6 0 0 1 4.17.68A9.48 9.48 0 0 1 68.66 39V16.14zm-13.8 31a10.48 10.48 0 0 0-3.56-2.65 7.52 7.52 0 0 0-3.79-.83 9.15 9.15 0 0 0-3.68 1 8.57 8.57 0 0 0-2.69 2.2A10.37 10.37 0 0 0 53.08 50a8.59 8.59 0 0 0-.57 3 9.71 9.71 0 0 0 2.27 6.71 7.88 7.88 0 0 0 6.14 2.84 7.31 7.31 0 0 0 4.13-1.1 10.26 10.26 0 0 0 3.3-3.3z" transform="translate(0 -14.03)"/></g><path class="cls-5" d="M185.36 66v7.7a16.94 16.94 0 0 1-4.16.31c-6.46-.27-13.36-5.06-13-15.47l.59-17.74-5.6-.23.26-7 6-.88.45-14.35 8.28.35-.44 14.19 13.09.4-.52 6.77-12.77-.38L177 58c-.16 3.78.47 7.6 5 7.94zM28.3 71.32l-.9-6.62 3.5-1.29-3.23-8.48L16.09 56l-2.78 17.68L2.8 74.81l-.89-6.54 4.26-1.63L12.42 28l-3.27-1-.47-6 14.78-1.3 16.81 42.69 4.6.81.77 5.95zm-8.6-37.24l-2.21 14.78 7.86-.81zM262.12 55.29l1.11 11.19 5.82.58.58 6.76L250 75.5l-.61-5.26 4.61-1.39-3.7-40.26-4.15-.59-.63-6.45a111.66 111.66 0 0 1 20.12-2c12.61-.28 18.41 8.54 18.93 15.6.75 9.85-4.79 18.08-22.45 20.14zm-2.57-27.41L261.72 47c12.86-1 13.69-7 13.07-11.53-.47-3.79-2.04-9.26-15.24-7.59zM295.18 51.1c.08 3.63 4.09 6.28 7.72 6.43a10.23 10.23 0 0 0 7.19-2.53l4.31 5.52c-3.1 3.41-7 4.46-11.42 4.39-8.7-.23-16.8-6.43-16.12-18.46.61-11 9.23-15.66 16-15.66 5.37 0 15.66 3.48 14.68 19.67zm7.57-13.1a7.53 7.53 0 0 0-7.19 6.36l14-.53a6.61 6.61 0 0 0-6.81-5.83zM343.63 66.28v7.32a16.08 16.08 0 0 1-4 .29c-6.14-.26-12.69-4.81-12.35-14.69l.56-16.84-5.31-.22.25-6.64 5.69-.83.47-13.67 7.86.33-.42 13.48 12.43.38-.5 6.43-12.13-.36-.51 17.45c-.15 3.59.45 7.21 4.71 7.54zM231.44 69.07l-11.2-.86.28-2.72a8.7 8.7 0 0 1-5.57 1.78 14.9 14.9 0 0 1-6.3-1.41 12.92 12.92 0 0 1-5-4 8.69 8.69 0 0 1-1.65-6.15 10.43 10.43 0 0 1 4.1-7.83 12.82 12.82 0 0 1 8.75-2.43 12.31 12.31 0 0 1 4.15.82 9.47 9.47 0 0 1 2.76 1.62 6.66 6.66 0 0 0-.78-4 5.73 5.73 0 0 0-2.98-2.61 8.39 8.39 0 0 0-4.52-.35 14.24 14.24 0 0 0-5.65 2.5L205 37.7a15.66 15.66 0 0 1 3.54-2.1 16.6 16.6 0 0 1 4.65-1.26 17.26 17.26 0 0 1 5.27.18 14.11 14.11 0 0 1 5.31 2.21 11.65 11.65 0 0 1 4.07 4.27 14.62 14.62 0 0 1 1.51 5.44 38.28 38.28 0 0 1-.08 6.83q-.35 3.8-.77 8.54l3.37.27zm-10.66-9.7l.39-5.24a10 10 0 0 0-2.08-1.26 10.21 10.21 0 0 0-2.85-.83 6.17 6.17 0 0 0-4.43.88 4.41 4.41 0 0 0-1.72 3.41 4 4 0 0 0 .79 2.87 5.47 5.47 0 0 0 2.52 1.89 6.59 6.59 0 0 0 3.52.25 8.21 8.21 0 0 0 3.86-1.97zM159.95 46.82a20.34 20.34 0 0 1-.23 6.19 16 16 0 0 1-2.29 5.73 14.74 14.74 0 0 1-4.58 4.45 16.64 16.64 0 0 1-7.18 2.29 15.77 15.77 0 0 1-9.85-2L137.31 79l6.33-.73.94 7.76-19.06 1.47-.5-6.35 4.28-.62-3.92-40.45-3.78.27L121 34l12.19-1.57.42 4.61a13.28 13.28 0 0 1 4.08-2.47 16.17 16.17 0 0 1 5.11-1.19 16.73 16.73 0 0 1 11.27 3.35A15.78 15.78 0 0 1 158 41.1a13.89 13.89 0 0 1 1.95 5.72zM150.86 49a8.41 8.41 0 0 0-2.32-5.83 7.19 7.19 0 0 0-6-2.05 11.79 11.79 0 0 0-4.41 1.36 7.52 7.52 0 0 0-3.26 3.09l.79 8.65a8.87 8.87 0 0 0 3.6 2.73 9.54 9.54 0 0 0 4.79.79A7.1 7.1 0 0 0 149 55a8.41 8.41 0 0 0 1.86-6zM118.41 51.29a20.92 20.92 0 0 1-2 6.52 16.7 16.7 0 0 1-3.82 5 16.16 16.16 0 0 1-5.34 3.19 15.92 15.92 0 0 1-6.66.8 18.64 18.64 0 0 1-6.41-1.61 15.64 15.64 0 0 1-8.29-8.86 17.71 17.71 0 0 1-1.11-6.62 18.26 18.26 0 0 1 1.7-7.47 16.69 16.69 0 0 1 10.16-8.86 18.3 18.3 0 0 1 7.08-.79 14.61 14.61 0 0 1 6.4 2 16.84 16.84 0 0 1 4.9 4.33 17.87 17.87 0 0 1 2.92 5.85 15.39 15.39 0 0 1 .47 6.52zm-7.8-.56a9.14 9.14 0 0 0-.32-3.67 11.53 11.53 0 0 0-1.61-3.4 9.87 9.87 0 0 0-2.59-2.57 7.48 7.48 0 0 0-3.33-1.24 7.38 7.38 0 0 0-3.55.6 10.4 10.4 0 0 0-3.16 2.14 11 11 0 0 0-2.31 3.31 10.86 10.86 0 0 0-1 4A8.5 8.5 0 0 0 95 56.48a9.55 9.55 0 0 0 6 2.94 7 7 0 0 0 3.45-.42 9 9 0 0 0 2.94-1.86 11 11 0 0 0 2.18-2.91 10 10 0 0 0 1.04-3.5zM84.68 14.26v7.13l-4.62.3-.53 40.49 3.79-.18v7.2l-12.13.3.08-5.08a8.19 8.19 0 0 1-3.64 2.08 17.63 17.63 0 0 1-4.55.8 15.84 15.84 0 0 1-5.91-1A16.12 16.12 0 0 1 52 63.28a15.3 15.3 0 0 1-5.16-11.41 18.29 18.29 0 0 1 1-6.44 17.1 17.1 0 0 1 3.22-5.65 16 16 0 0 1 5.27-4 15.61 15.61 0 0 1 7.16-1.44 13.6 13.6 0 0 1 4.21.66 9.48 9.48 0 0 1 3.41 1.82V14zm-13.8 31a10.48 10.48 0 0 0-3.56-2.65 7.52 7.52 0 0 0-3.79-.83 9.15 9.15 0 0 0-3.68 1A8.57 8.57 0 0 0 57.16 45a10.36 10.36 0 0 0-1.63 2.84 8.59 8.59 0 0 0-.57 3 9.71 9.71 0 0 0 2.27 6.71 7.89 7.89 0 0 0 6.14 2.84 7.31 7.31 0 0 0 4.13-1.1 10.26 10.26 0 0 0 3.3-3.3z" transform="translate(0 -14.03)"/><text class="cls-6" transform="translate(439.89 107.58)"></text></svg>